<svg width="410" height="121" viewBox="0 0 410 121" fill="none" xmlns="http://www.w3.org/2000/svg">
<path d="M117.15 71.4C116.117 71.4 115.3 71.1167 114.7 70.55C114.133 69.95 113.85 69.1 113.85 68V39.15C113.85 38.05 114.133 37.2167 114.7 36.65C115.3 36.05 116.15 35.75 117.25 35.75H134.7C135.567 35.75 136.217 35.9667 136.65 36.4C137.083 36.8333 137.3 37.45 137.3 38.25C137.3 39.0833 137.083 39.7333 136.65 40.2C136.217 40.6333 135.567 40.85 134.7 40.85H120.25V50.8H133.65C134.483 50.8 135.117 51.0167 135.55 51.45C136.017 51.8833 136.25 52.5 136.25 53.3C136.25 54.1333 136.017 54.7833 135.55 55.25C135.117 55.6833 134.483 55.9 133.65 55.9H120.25V68C120.25 70.2667 119.217 71.4 117.15 71.4ZM145.326 71C144.226 71 143.376 70.7167 142.776 70.15C142.21 69.55 141.926 68.7 141.926 67.6V39.15C141.926 38.05 142.21 37.2167 142.776 36.65C143.376 36.05 144.226 35.75 145.326 35.75H163.176C164.01 35.75 164.643 35.9667 165.076 36.4C165.543 36.8333 165.776 37.45 165.776 38.25C165.776 39.0833 165.543 39.7333 165.076 40.2C164.643 40.6333 164.01 40.85 163.176 40.85H148.076V50.55H162.076C162.943 50.55 163.593 50.7667 164.026 51.2C164.46 51.6333 164.676 52.2667 164.676 53.1C164.676 53.9333 164.46 54.5667 164.026 55C163.593 55.4333 162.943 55.65 162.076 55.65H148.076V65.9H163.176C164.01 65.9 164.643 66.1167 165.076 66.55C165.543 66.9833 165.776 67.6167 165.776 68.45C165.776 69.2833 165.543 69.9167 165.076 70.35C164.643 70.7833 164.01 71 163.176 71H145.326ZM175.16 71C174.06 71 173.21 70.7167 172.61 70.15C172.043 69.55 171.76 68.7 171.76 67.6V39.15C171.76 38.05 172.043 37.2167 172.61 36.65C173.21 36.05 174.06 35.75 175.16 35.75H193.01C193.843 35.75 194.477 35.9667 194.91 36.4C195.377 36.8333 195.61 37.45 195.61 38.25C195.61 39.0833 195.377 39.7333 194.91 40.2C194.477 40.6333 193.843 40.85 193.01 40.85H177.91V50.55H191.91C192.777 50.55 193.427 50.7667 193.86 51.2C194.293 51.6333 194.51 52.2667 194.51 53.1C194.51 53.9333 194.293 54.5667 193.86 55C193.427 55.4333 192.777 55.65 191.91 55.65H177.91V65.9H193.01C193.843 65.9 194.477 66.1167 194.91 66.55C195.377 66.9833 195.61 67.6167 195.61 68.45C195.61 69.2833 195.377 69.9167 194.91 70.35C194.477 70.7833 193.843 71 193.01 71H175.16ZM204.994 71C203.894 71 203.044 70.7167 202.444 70.15C201.877 69.55 201.594 68.7 201.594 67.6V39.15C201.594 38.05 201.877 37.2167 202.444 36.65C203.044 36.05 203.894 35.75 204.994 35.75H214.694C220.594 35.75 225.144 37.2667 228.344 40.3C231.577 43.3333 233.194 47.6833 233.194 53.35C233.194 56.1833 232.777 58.7 231.944 60.9C231.144 63.0667 229.944 64.9 228.344 66.4C226.777 67.9 224.844 69.05 222.544 69.85C220.277 70.6167 217.661 71 214.694 71H204.994ZM207.994 65.7H214.294C216.361 65.7 218.144 65.45 219.644 64.95C221.177 64.4167 222.444 63.65 223.444 62.65C224.477 61.6167 225.244 60.3333 225.744 58.8C226.244 57.2333 226.494 55.4167 226.494 53.35C226.494 49.2167 225.477 46.1333 223.444 44.1C221.411 42.0667 218.361 41.05 214.294 41.05H207.994V65.7ZM242.93 71C241.897 71 241.097 70.7167 240.53 70.15C239.963 69.55 239.68 68.7333 239.68 67.7V38.85C239.68 37.7833 239.947 36.9833 240.48 36.45C241.047 35.8833 241.847 35.6 242.88 35.6C243.913 35.6 244.697 35.8833 245.23 36.45C245.797 36.9833 246.08 37.7833 246.08 38.85V65.55H260.58C261.48 65.55 262.163 65.7833 262.63 66.25C263.13 66.7167 263.38 67.3833 263.38 68.25C263.38 69.1167 263.13 69.8 262.63 70.3C262.163 70.7667 261.48 71 260.58 71H242.93ZM270.956 71.4C269.923 71.4 269.123 71.1167 268.556 70.55C268.023 69.95 267.756 69.1333 267.756 68.1V38.65C267.756 37.5833 268.023 36.7667 268.556 36.2C269.123 35.6333 269.923 35.35 270.956 35.35C271.99 35.35 272.773 35.6333 273.306 36.2C273.873 36.7667 274.156 37.5833 274.156 38.65V68.1C274.156 69.1333 273.89 69.95 273.356 70.55C272.823 71.1167 272.023 71.4 270.956 71.4ZM284.868 71.4C283.901 71.4 283.151 71.1333 282.618 70.6C282.118 70.0667 281.868 69.3 281.868 68.3V38.55C281.868 37.5167 282.118 36.7333 282.618 36.2C283.151 35.6333 283.834 35.35 284.668 35.35C285.434 35.35 286.001 35.5 286.368 35.8C286.768 36.0667 287.234 36.5333 287.768 37.2L306.918 62.05H305.618V38.4C305.618 37.4333 305.868 36.6833 306.368 36.15C306.901 35.6167 307.651 35.35 308.618 35.35C309.584 35.35 310.318 35.6167 310.818 36.15C311.318 36.6833 311.568 37.4333 311.568 38.4V68.4C311.568 69.3333 311.334 70.0667 310.868 70.6C310.401 71.1333 309.768 71.4 308.968 71.4C308.201 71.4 307.584 71.25 307.118 70.95C306.684 70.65 306.201 70.1667 305.668 69.5L286.568 44.65H287.818V68.3C287.818 69.3 287.568 70.0667 287.068 70.6C286.568 71.1333 285.834 71.4 284.868 71.4ZM322.47 71.4C321.437 71.4 320.637 71.1167 320.07 70.55C319.537 69.95 319.27 69.1333 319.27 68.1V38.6C319.27 37.5333 319.537 36.7333 320.07 36.2C320.637 35.6333 321.437 35.35 322.47 35.35C323.503 35.35 324.287 35.6333 324.82 36.2C325.387 36.7333 325.67 37.5333 325.67 38.6V51.35H325.77L340.12 36.95C340.653 36.4167 341.187 36.0167 341.72 35.75C342.253 35.4833 342.853 35.35 343.52 35.35C344.487 35.35 345.17 35.6 345.57 36.1C346.003 36.6 346.17 37.1833 346.07 37.85C346.003 38.5167 345.687 39.1333 345.12 39.7L330.52 54.15L330.57 51.25L345.82 66.75C346.52 67.4167 346.887 68.1167 346.92 68.85C346.953 69.5833 346.72 70.2 346.22 70.7C345.753 71.1667 345.053 71.4 344.12 71.4C343.32 71.4 342.67 71.2333 342.17 70.9C341.703 70.5667 341.153 70.0833 340.52 69.45L325.77 54.7H325.67V68.1C325.67 69.1333 325.403 69.95 324.87 70.55C324.337 71.1167 323.537 71.4 322.47 71.4Z" fill="#FF8614"/>
<path d="M64.8173 103.756C64.8173 103.756 44.711 117.213 32.3474 113.126C21.179 109.435 14.3298 107.528 9.31774 95.5759C2.97608 80.4533 6.59049 64.3064 12.9088 49.1711C18.6569 35.402 28.0268 22.6437 39.3527 14.5167C51.7555 5.61702 63.5524 3.53559 77.4 9.01318C84.8203 11.9484 87.2862 15.4127 89.8057 23.8865C91.1961 28.5628 90.9554 31.7685 89.8057 36.5288C87.5083 46.0412 73.4824 53.6331 73.4824 53.6331" stroke="#FF8614" stroke-width="11"/>
<path d="M59.2931 96.7879C59.2376 101.888 61.5907 109.499 61.5907 109.499C61.5907 109.499 69.3905 108.543 73.054 104.731C80.9046 96.5628 73.4274 71.4682 73.4274 71.4682C73.4274 71.4682 59.4255 84.622 59.2931 96.7879Z" fill="#2D600A" stroke="#FF8614"/>
<path d="M63.8222 104.595C63.8222 104.595 68.7307 99.6664 70.4564 95.2476C72.3011 90.5245 72.2549 81.9154 72.2549 81.9154" stroke="white" stroke-width="0.5"/>
<line y1="-0.25" x2="5.83386" y2="-0.25" transform="matrix(0.260476 0.966382 -0.910006 0.41149 64.1045 97.1128)" stroke="white" stroke-width="0.5"/>
<line y1="-0.25" x2="4.35287" y2="-0.25" transform="matrix(0.201118 0.980273 -0.944237 0.326013 67.9634 94.1055)" stroke="white" stroke-width="0.5"/>
<line y1="-0.25" x2="2.7731" y2="-0.25" transform="matrix(0.179214 0.984443 -0.955073 0.293066 70.5088 90.5698)" stroke="#242121" stroke-width="0.5"/>
<path d="M69.4932 107.59C69.4932 107.59 73.3978 104.038 74.7464 100.881C76.1879 97.5072 76.073 91.3926 76.073 91.3926" stroke="#242121"/>
<line y1="-0.5" x2="4.18718" y2="-0.5" transform="matrix(0.304147 0.952625 -0.923895 0.382645 69.6523 102.271)" stroke="#242121"/>
<line y1="-0.5" x2="3.1118" y2="-0.5" transform="matrix(0.238731 0.971086 -0.952726 0.303831 72.7295 100.097)" stroke="#242121"/>
<line y1="-0.5" x2="1.98001" y2="-0.5" transform="matrix(0.214396 0.976747 -0.961771 0.273853 74.7461 97.5586)" stroke="#242121"/>
<path d="M69.4932 107.59C69.4932 107.59 73.3978 104.038 74.7464 100.881C76.1879 97.5072 76.073 91.3926 76.073 91.3926" stroke="#242121" stroke-width="0.5"/>
<line y1="-0.25" x2="4.18718" y2="-0.25" transform="matrix(0.304147 0.952625 -0.923895 0.382645 69.6523 102.271)" stroke="#242121" stroke-width="0.5"/>
<line y1="-0.25" x2="3.1118" y2="-0.25" transform="matrix(0.238731 0.971086 -0.952726 0.303831 72.7295 100.097)" stroke="#242121" stroke-width="0.5"/>
<line y1="-0.25" x2="1.98001" y2="-0.25" transform="matrix(0.214396 0.976747 -0.961771 0.273853 74.7461 97.5586)" stroke="#242121" stroke-width="0.5"/>
<line y1="-0.25" x2="4.17623" y2="-0.25" transform="matrix(-0.332651 0.94305 -0.909324 -0.416088 73.834 105.871)" stroke="#242121" stroke-width="0.5"/>
<line y1="-0.25" x2="3.06703" y2="-0.25" transform="matrix(-0.397024 0.917808 -0.872079 -0.489365 77.4004 106.59)" stroke="#242121" stroke-width="0.5"/>
<line y1="-0.25" x2="1.94306" y2="-0.25" transform="matrix(-0.420599 0.907247 -0.856968 -0.51537 80.3896 106.233)" stroke="#242121" stroke-width="0.5"/>
<path d="M69.4932 107.59C69.4932 107.59 73.3978 104.038 74.7464 100.881C76.1879 97.5072 76.073 91.3926 76.073 91.3926" stroke="#242121"/>
<line y1="-0.5" x2="4.18718" y2="-0.5" transform="matrix(0.304147 0.952625 -0.923895 0.382645 69.6523 102.271)" stroke="#242121"/>
<line y1="-0.5" x2="3.1118" y2="-0.5" transform="matrix(0.238731 0.971086 -0.952726 0.303831 72.7295 100.097)" stroke="#242121"/>
<line y1="-0.5" x2="1.98001" y2="-0.5" transform="matrix(0.214396 0.976747 -0.961771 0.273853 74.7461 97.5586)" stroke="#242121"/>
<path d="M70.4715 91.1156C66.8606 96.6407 63.2514 106.334 63.2514 106.334C63.2514 106.334 69.6167 109.932 74.9603 107.958C86.4112 103.728 98.5173 71.9335 98.5173 71.9335C98.5173 71.9335 79.0845 77.9369 70.4715 91.1156Z" fill="#FF8614" stroke="#2D600A"/>
<path d="M70.498 109.447C70.498 109.447 77.2374 102.205 79.913 97.2775C82.7729 92.0105 89.0483 80.7246 89.0483 80.7246" stroke="white" stroke-width="0.5"/>
<line y1="-0.25" x2="4.18718" y2="-0.25" transform="matrix(0.304147 0.952625 -0.923895 0.382645 69.6523 102.271)" stroke="#242121" stroke-width="0.5"/>
<line y1="-0.25" x2="3.1118" y2="-0.25" transform="matrix(0.238731 0.971086 -0.952726 0.303831 72.7295 100.097)" stroke="#242121" stroke-width="0.5"/>
<line y1="-0.25" x2="1.98001" y2="-0.25" transform="matrix(0.214396 0.976747 -0.961771 0.273853 74.7461 97.5586)" stroke="#242121" stroke-width="0.5"/>
<line y1="-0.25" x2="1.98001" y2="-0.25" transform="matrix(0.214396 0.976747 -0.961771 0.273853 79.6387 93.0864)" stroke="white" stroke-width="0.5"/>
<line y1="-0.25" x2="4.17623" y2="-0.25" transform="matrix(-0.332651 0.94305 -0.909324 -0.416088 73.834 105.871)" stroke="#242121" stroke-width="0.5"/>
<line y1="-0.25" x2="3.45131" y2="-0.25" transform="matrix(-0.378365 0.925656 -0.883485 -0.46846 77.6797 105.73)" stroke="#242121" stroke-width="0.5"/>
<path d="M62.2056 64.3416L71.9996 47.2373L79.8348 57.0112L62.2056 64.3416Z" fill="#FF8614" stroke="#FF8614" stroke-width="2"/>
<path d="M68.9944 99.4435C65.848 102.996 62.0031 110.047 62.0031 110.047C62.0031 110.047 67.6624 114.227 72.1106 113.908C81.6427 113.224 92.6365 90.7442 92.6365 90.7442C92.6365 90.7442 76.4994 90.9686 68.9944 99.4435Z" fill="#2D600A" stroke="#FF8614"/>
<path d="M66.4739 108.873C66.4739 108.873 72.3101 108.524 76.0091 106.504C79.9629 104.344 85.2161 98.2324 85.2161 98.2324" stroke="white" stroke-width="0.5"/>
<line y1="-0.25" x2="5.41989" y2="-0.25" transform="matrix(-0.477222 0.913855 -0.885987 -0.332133 71.7031 103.426)" stroke="white" stroke-width="0.5"/>
<line y1="-0.25" x2="4.2183" y2="-0.25" transform="matrix(-0.501394 0.896929 -0.786657 -0.57045 76.2148 103.426)" stroke="white" stroke-width="0.5"/>
<line y1="-0.25" x2="4.22174" y2="-0.25" transform="matrix(0.220042 1.03245 -0.90699 0.250757 82.4043 86.3999)" stroke="white" stroke-width="0.5"/>
<line y1="-0.25" x2="2.32435" y2="-0.25" transform="matrix(0.200524 1.03761 -0.911489 0.228504 84.8955 84.5088)" stroke="white" stroke-width="0.5"/>
<line y1="-0.25" x2="2.5838" y2="-0.25" transform="matrix(-0.537715 0.869236 -0.838793 -0.464375 79.6411 102.48)" stroke="white" stroke-width="0.5"/>
<path d="M62.3689 110.046C62.2827 109.928 62.1104 109.731 61.9025 109.613C61.7822 109.544 61.7289 109.396 61.6944 109.337C61.6848 109.32 61.6599 109.394 61.6682 109.454C61.7974 109.671 61.9531 109.789 62.0567 109.868C62.1088 109.908 62.1602 109.947 62.2132 109.987" stroke="#2D600A" stroke-linecap="round"/>
<path d="M61.7983 109.93C61.7983 109.91 61.7983 109.89 61.7897 109.851C61.7811 109.811 61.7638 109.753 61.7461 109.692" stroke="#2D600A" stroke-linecap="round"/>
<path d="M117.825 111.175C117.525 111.175 117.283 111.1 117.1 110.95C116.917 110.783 116.767 110.542 116.65 110.225L111.125 94.45C111.008 94.1 111.033 93.8083 111.2 93.575C111.383 93.325 111.667 93.2 112.05 93.2C112.333 93.2 112.558 93.275 112.725 93.425C112.892 93.5583 113.033 93.775 113.15 94.075L118.325 109.25H117.45L122.725 94.15C122.842 93.8333 122.983 93.6 123.15 93.45C123.317 93.2833 123.542 93.2 123.825 93.2C124.092 93.2 124.3 93.2833 124.45 93.45C124.617 93.6 124.758 93.8333 124.875 94.15L130.075 109.25H129.3L134.525 94.075C134.608 93.7917 134.733 93.575 134.9 93.425C135.083 93.275 135.317 93.2 135.6 93.2C135.95 93.2 136.208 93.3167 136.375 93.55C136.542 93.7833 136.558 94.0833 136.425 94.45L130.875 110.225C130.758 110.542 130.608 110.783 130.425 110.95C130.258 111.1 130.017 111.175 129.7 111.175C129.4 111.175 129.158 111.1 128.975 110.95C128.808 110.783 128.658 110.542 128.525 110.225L123.5 95.75H124.05L118.975 110.225C118.858 110.542 118.717 110.783 118.55 110.95C118.383 111.1 118.142 111.175 117.825 111.175ZM141.824 111.225C140.99 111.225 140.24 111.067 139.574 110.75C138.924 110.417 138.407 109.967 138.024 109.4C137.64 108.833 137.449 108.2 137.449 107.5C137.449 106.6 137.674 105.892 138.124 105.375C138.59 104.858 139.349 104.492 140.399 104.275C141.465 104.058 142.915 103.95 144.749 103.95H145.874V105.275H144.774C143.424 105.275 142.357 105.342 141.574 105.475C140.807 105.592 140.265 105.8 139.949 106.1C139.649 106.4 139.499 106.825 139.499 107.375C139.499 108.058 139.732 108.617 140.199 109.05C140.682 109.483 141.332 109.7 142.149 109.7C142.815 109.7 143.399 109.542 143.899 109.225C144.415 108.908 144.815 108.475 145.099 107.925C145.399 107.375 145.549 106.742 145.549 106.025V103.175C145.549 102.142 145.34 101.4 144.924 100.95C144.507 100.483 143.824 100.25 142.874 100.25C142.29 100.25 141.707 100.325 141.124 100.475C140.54 100.625 139.924 100.867 139.274 101.2C139.04 101.317 138.84 101.358 138.674 101.325C138.507 101.275 138.374 101.183 138.274 101.05C138.174 100.917 138.115 100.767 138.099 100.6C138.082 100.417 138.115 100.242 138.199 100.075C138.299 99.9083 138.449 99.775 138.649 99.675C139.382 99.3083 140.107 99.0417 140.824 98.875C141.54 98.7083 142.224 98.625 142.874 98.625C143.924 98.625 144.79 98.8 145.474 99.15C146.157 99.4833 146.665 100 146.999 100.7C147.332 101.383 147.499 102.267 147.499 103.35V110.125C147.499 110.458 147.415 110.717 147.249 110.9C147.099 111.083 146.874 111.175 146.574 111.175C146.257 111.175 146.015 111.083 145.849 110.9C145.682 110.717 145.599 110.458 145.599 110.125V108.175H145.824C145.69 108.808 145.432 109.35 145.049 109.8C144.682 110.25 144.224 110.6 143.674 110.85C143.124 111.1 142.507 111.225 141.824 111.225ZM155.355 111.225C154.605 111.225 153.847 111.133 153.08 110.95C152.33 110.767 151.63 110.45 150.98 110C150.814 109.883 150.697 109.75 150.63 109.6C150.564 109.433 150.539 109.275 150.555 109.125C150.589 108.958 150.655 108.817 150.755 108.7C150.872 108.583 151.005 108.517 151.155 108.5C151.322 108.467 151.505 108.5 151.705 108.6C152.355 109 152.98 109.283 153.58 109.45C154.197 109.6 154.805 109.675 155.405 109.675C156.355 109.675 157.072 109.5 157.555 109.15C158.039 108.8 158.28 108.325 158.28 107.725C158.28 107.258 158.122 106.892 157.805 106.625C157.489 106.342 156.989 106.125 156.305 105.975L154.03 105.475C152.98 105.258 152.197 104.883 151.68 104.35C151.18 103.817 150.93 103.125 150.93 102.275C150.93 101.525 151.122 100.883 151.505 100.35C151.905 99.8 152.464 99.375 153.18 99.075C153.897 98.775 154.73 98.625 155.68 98.625C156.414 98.625 157.105 98.725 157.755 98.925C158.422 99.1083 159.022 99.4083 159.555 99.825C159.722 99.9417 159.83 100.083 159.88 100.25C159.947 100.4 159.955 100.558 159.905 100.725C159.872 100.875 159.797 101.008 159.68 101.125C159.564 101.225 159.422 101.283 159.255 101.3C159.089 101.317 158.914 101.267 158.73 101.15C158.23 100.817 157.722 100.575 157.205 100.425C156.689 100.258 156.18 100.175 155.68 100.175C154.747 100.175 154.039 100.358 153.555 100.725C153.072 101.092 152.83 101.575 152.83 102.175C152.83 102.642 152.98 103.025 153.28 103.325C153.58 103.625 154.047 103.842 154.68 103.975L156.955 104.45C158.039 104.683 158.847 105.058 159.38 105.575C159.93 106.075 160.205 106.758 160.205 107.625C160.205 108.725 159.764 109.6 158.88 110.25C157.997 110.9 156.822 111.225 155.355 111.225ZM168.045 111.225C167.095 111.225 166.295 111.058 165.645 110.725C165.011 110.375 164.536 109.875 164.22 109.225C163.903 108.558 163.745 107.75 163.745 106.8V100.425H162.07C161.786 100.425 161.57 100.358 161.42 100.225C161.27 100.075 161.195 99.875 161.195 99.625C161.195 99.375 161.27 99.1833 161.42 99.05C161.57 98.9167 161.786 98.85 162.07 98.85H163.745V95.975C163.745 95.6417 163.836 95.3917 164.02 95.225C164.203 95.0417 164.453 94.95 164.77 94.95C165.086 94.95 165.328 95.0417 165.495 95.225C165.678 95.3917 165.77 95.6417 165.77 95.975V98.85H168.92C169.203 98.85 169.42 98.9167 169.57 99.05C169.72 99.1833 169.795 99.375 169.795 99.625C169.795 99.875 169.72 100.075 169.57 100.225C169.42 100.358 169.203 100.425 168.92 100.425H165.77V106.6C165.77 107.55 165.97 108.275 166.37 108.775C166.77 109.258 167.42 109.5 168.32 109.5C168.636 109.5 168.903 109.467 169.12 109.4C169.353 109.333 169.545 109.3 169.695 109.3C169.845 109.283 169.97 109.333 170.07 109.45C170.17 109.567 170.22 109.767 170.22 110.05C170.22 110.25 170.178 110.433 170.095 110.6C170.028 110.767 169.903 110.883 169.72 110.95C169.52 111.017 169.253 111.075 168.92 111.125C168.603 111.192 168.311 111.225 168.045 111.225ZM177.263 111.225C175.979 111.225 174.871 110.975 173.938 110.475C173.021 109.958 172.304 109.233 171.788 108.3C171.288 107.367 171.038 106.25 171.038 104.95C171.038 103.683 171.288 102.583 171.788 101.65C172.288 100.7 172.971 99.9583 173.838 99.425C174.721 98.8917 175.738 98.625 176.888 98.625C177.704 98.625 178.438 98.7667 179.088 99.05C179.738 99.3167 180.288 99.7083 180.738 100.225C181.204 100.742 181.554 101.367 181.788 102.1C182.038 102.833 182.163 103.658 182.163 104.575C182.163 104.842 182.088 105.042 181.938 105.175C181.788 105.292 181.571 105.35 181.288 105.35H172.588V104.025H180.813L180.413 104.35C180.413 103.45 180.279 102.692 180.013 102.075C179.746 101.442 179.354 100.958 178.838 100.625C178.338 100.292 177.704 100.125 176.938 100.125C176.088 100.125 175.363 100.325 174.763 100.725C174.179 101.108 173.738 101.65 173.438 102.35C173.138 103.033 172.988 103.833 172.988 104.75V104.9C172.988 106.433 173.354 107.6 174.088 108.4C174.838 109.2 175.896 109.6 177.263 109.6C177.829 109.6 178.388 109.525 178.938 109.375C179.504 109.225 180.054 108.975 180.588 108.625C180.821 108.475 181.029 108.408 181.213 108.425C181.413 108.425 181.571 108.483 181.688 108.6C181.804 108.7 181.879 108.833 181.913 109C181.963 109.15 181.946 109.317 181.863 109.5C181.796 109.683 181.654 109.842 181.438 109.975C180.888 110.375 180.238 110.683 179.488 110.9C178.738 111.117 177.996 111.225 177.263 111.225ZM192.589 111.175C192.255 111.175 192.005 111.083 191.839 110.9C191.672 110.717 191.589 110.458 191.589 110.125V99.7C191.589 99.3667 191.672 99.1167 191.839 98.95C192.005 98.7667 192.247 98.675 192.564 98.675C192.88 98.675 193.122 98.7667 193.289 98.95C193.472 99.1167 193.564 99.3667 193.564 99.7V101.9L193.289 101.55C193.605 100.617 194.114 99.9 194.814 99.4C195.53 98.8833 196.38 98.625 197.364 98.625C198.397 98.625 199.23 98.875 199.864 99.375C200.514 99.8583 200.947 100.617 201.164 101.65H200.789C201.089 100.717 201.622 99.9833 202.389 99.45C203.172 98.9 204.08 98.625 205.114 98.625C206.03 98.625 206.78 98.8 207.364 99.15C207.964 99.5 208.414 100.033 208.714 100.75C209.014 101.45 209.164 102.342 209.164 103.425V110.125C209.164 110.458 209.072 110.717 208.889 110.9C208.722 111.083 208.472 111.175 208.139 111.175C207.822 111.175 207.572 111.083 207.389 110.9C207.222 110.717 207.139 110.458 207.139 110.125V103.525C207.139 102.408 206.947 101.592 206.564 101.075C206.18 100.542 205.53 100.275 204.614 100.275C203.614 100.275 202.822 100.625 202.239 101.325C201.672 102.008 201.389 102.942 201.389 104.125V110.125C201.389 110.458 201.297 110.717 201.114 110.9C200.947 111.083 200.697 111.175 200.364 111.175C200.047 111.175 199.797 111.083 199.614 110.9C199.447 110.717 199.364 110.458 199.364 110.125V103.525C199.364 102.408 199.164 101.592 198.764 101.075C198.38 100.542 197.739 100.275 196.839 100.275C195.839 100.275 195.047 100.625 194.464 101.325C193.897 102.008 193.614 102.942 193.614 104.125V110.125C193.614 110.825 193.272 111.175 192.589 111.175ZM216.775 111.225C215.941 111.225 215.191 111.067 214.525 110.75C213.875 110.417 213.358 109.967 212.975 109.4C212.591 108.833 212.4 108.2 212.4 107.5C212.4 106.6 212.625 105.892 213.075 105.375C213.541 104.858 214.3 104.492 215.35 104.275C216.416 104.058 217.866 103.95 219.7 103.95H220.825V105.275H219.725C218.375 105.275 217.308 105.342 216.525 105.475C215.758 105.592 215.216 105.8 214.9 106.1C214.6 106.4 214.45 106.825 214.45 107.375C214.45 108.058 214.683 108.617 215.15 109.05C215.633 109.483 216.283 109.7 217.1 109.7C217.766 109.7 218.35 109.542 218.85 109.225C219.366 108.908 219.766 108.475 220.05 107.925C220.35 107.375 220.5 106.742 220.5 106.025V103.175C220.5 102.142 220.291 101.4 219.875 100.95C219.458 100.483 218.775 100.25 217.825 100.25C217.241 100.25 216.658 100.325 216.075 100.475C215.491 100.625 214.875 100.867 214.225 101.2C213.991 101.317 213.791 101.358 213.625 101.325C213.458 101.275 213.325 101.183 213.225 101.05C213.125 100.917 213.066 100.767 213.05 100.6C213.033 100.417 213.066 100.242 213.15 100.075C213.25 99.9083 213.4 99.775 213.6 99.675C214.333 99.3083 215.058 99.0417 215.775 98.875C216.491 98.7083 217.175 98.625 217.825 98.625C218.875 98.625 219.741 98.8 220.425 99.15C221.108 99.4833 221.616 100 221.95 100.7C222.283 101.383 222.45 102.267 222.45 103.35V110.125C222.45 110.458 222.366 110.717 222.2 110.9C222.05 111.083 221.825 111.175 221.525 111.175C221.208 111.175 220.966 111.083 220.8 110.9C220.633 110.717 220.55 110.458 220.55 110.125V108.175H220.775C220.641 108.808 220.383 109.35 220 109.8C219.633 110.25 219.175 110.6 218.625 110.85C218.075 111.1 217.458 111.225 216.775 111.225ZM227.207 111.175C226.873 111.175 226.623 111.083 226.457 110.9C226.29 110.717 226.207 110.458 226.207 110.125V99.7C226.207 99.3667 226.29 99.1167 226.457 98.95C226.623 98.7667 226.865 98.675 227.182 98.675C227.498 98.675 227.74 98.7667 227.907 98.95C228.09 99.1167 228.182 99.3667 228.182 99.7V101.85L227.907 101.55C228.257 100.583 228.823 99.8583 229.607 99.375C230.407 98.875 231.323 98.625 232.357 98.625C233.323 98.625 234.123 98.8 234.757 99.15C235.407 99.5 235.89 100.033 236.207 100.75C236.523 101.45 236.682 102.342 236.682 103.425V110.125C236.682 110.458 236.59 110.717 236.407 110.9C236.24 111.083 235.998 111.175 235.682 111.175C235.348 111.175 235.09 111.083 234.907 110.9C234.74 110.717 234.657 110.458 234.657 110.125V103.55C234.657 102.417 234.432 101.592 233.982 101.075C233.548 100.542 232.848 100.275 231.882 100.275C230.765 100.275 229.873 100.625 229.207 101.325C228.557 102.008 228.232 102.925 228.232 104.075V110.125C228.232 110.825 227.89 111.175 227.207 111.175ZM244.241 111.225C243.407 111.225 242.657 111.067 241.991 110.75C241.341 110.417 240.824 109.967 240.441 109.4C240.057 108.833 239.866 108.2 239.866 107.5C239.866 106.6 240.091 105.892 240.541 105.375C241.007 104.858 241.766 104.492 242.816 104.275C243.882 104.058 245.332 103.95 247.166 103.95H248.291V105.275H247.191C245.841 105.275 244.774 105.342 243.991 105.475C243.224 105.592 242.682 105.8 242.366 106.1C242.066 106.4 241.916 106.825 241.916 107.375C241.916 108.058 242.149 108.617 242.616 109.05C243.099 109.483 243.749 109.7 244.566 109.7C245.232 109.7 245.816 109.542 246.316 109.225C246.832 108.908 247.232 108.475 247.516 107.925C247.816 107.375 247.966 106.742 247.966 106.025V103.175C247.966 102.142 247.757 101.4 247.341 100.95C246.924 100.483 246.241 100.25 245.291 100.25C244.707 100.25 244.124 100.325 243.541 100.475C242.957 100.625 242.341 100.867 241.691 101.2C241.457 101.317 241.257 101.358 241.091 101.325C240.924 101.275 240.791 101.183 240.691 101.05C240.591 100.917 240.532 100.767 240.516 100.6C240.499 100.417 240.532 100.242 240.616 100.075C240.716 99.9083 240.866 99.775 241.066 99.675C241.799 99.3083 242.524 99.0417 243.241 98.875C243.957 98.7083 244.641 98.625 245.291 98.625C246.341 98.625 247.207 98.8 247.891 99.15C248.574 99.4833 249.082 100 249.416 100.7C249.749 101.383 249.916 102.267 249.916 103.35V110.125C249.916 110.458 249.832 110.717 249.666 110.9C249.516 111.083 249.291 111.175 248.991 111.175C248.674 111.175 248.432 111.083 248.266 110.9C248.099 110.717 248.016 110.458 248.016 110.125V108.175H248.241C248.107 108.808 247.849 109.35 247.466 109.8C247.099 110.25 246.641 110.6 246.091 110.85C245.541 111.1 244.924 111.225 244.241 111.225ZM259.047 115.725C258.164 115.725 257.297 115.617 256.447 115.4C255.614 115.2 254.856 114.875 254.172 114.425C253.972 114.308 253.839 114.167 253.772 114C253.722 113.833 253.714 113.667 253.747 113.5C253.781 113.35 253.856 113.208 253.972 113.075C254.089 112.958 254.222 112.883 254.372 112.85C254.539 112.817 254.706 112.842 254.872 112.925C255.606 113.375 256.306 113.683 256.972 113.85C257.639 114.017 258.297 114.1 258.947 114.1C260.131 114.1 261.022 113.783 261.622 113.15C262.239 112.517 262.547 111.6 262.547 110.4V107.575H262.797C262.547 108.542 262.014 109.308 261.197 109.875C260.397 110.442 259.456 110.725 258.372 110.725C257.256 110.725 256.289 110.475 255.472 109.975C254.656 109.458 254.022 108.742 253.572 107.825C253.139 106.908 252.922 105.85 252.922 104.65C252.922 103.75 253.047 102.933 253.297 102.2C253.547 101.45 253.906 100.817 254.372 100.3C254.856 99.7667 255.431 99.3583 256.097 99.075C256.781 98.775 257.539 98.625 258.372 98.625C259.472 98.625 260.422 98.9083 261.222 99.475C262.022 100.025 262.539 100.775 262.772 101.725L262.522 102.025V99.7C262.522 99.3667 262.606 99.1167 262.772 98.95C262.956 98.7667 263.206 98.675 263.522 98.675C263.856 98.675 264.106 98.7667 264.272 98.95C264.439 99.1167 264.522 99.3667 264.522 99.7V110.125C264.522 111.975 264.056 113.367 263.122 114.3C262.206 115.25 260.847 115.725 259.047 115.725ZM258.747 109.075C259.531 109.075 260.206 108.9 260.772 108.55C261.339 108.183 261.772 107.667 262.072 107C262.389 106.333 262.547 105.55 262.547 104.65C262.547 103.3 262.206 102.233 261.522 101.45C260.839 100.65 259.914 100.25 258.747 100.25C257.981 100.25 257.314 100.433 256.747 100.8C256.181 101.15 255.739 101.658 255.422 102.325C255.122 102.975 254.972 103.75 254.972 104.65C254.972 106 255.314 107.075 255.997 107.875C256.681 108.675 257.597 109.075 258.747 109.075ZM273.796 111.225C272.513 111.225 271.404 110.975 270.471 110.475C269.554 109.958 268.838 109.233 268.321 108.3C267.821 107.367 267.571 106.25 267.571 104.95C267.571 103.683 267.821 102.583 268.321 101.65C268.821 100.7 269.504 99.9583 270.371 99.425C271.254 98.8917 272.271 98.625 273.421 98.625C274.238 98.625 274.971 98.7667 275.621 99.05C276.271 99.3167 276.821 99.7083 277.271 100.225C277.738 100.742 278.088 101.367 278.321 102.1C278.571 102.833 278.696 103.658 278.696 104.575C278.696 104.842 278.621 105.042 278.471 105.175C278.321 105.292 278.104 105.35 277.821 105.35H269.121V104.025H277.346L276.946 104.35C276.946 103.45 276.813 102.692 276.546 102.075C276.279 101.442 275.888 100.958 275.371 100.625C274.871 100.292 274.238 100.125 273.471 100.125C272.621 100.125 271.896 100.325 271.296 100.725C270.713 101.108 270.271 101.65 269.971 102.35C269.671 103.033 269.521 103.833 269.521 104.75V104.9C269.521 106.433 269.888 107.6 270.621 108.4C271.371 109.2 272.429 109.6 273.796 109.6C274.363 109.6 274.921 109.525 275.471 109.375C276.038 109.225 276.588 108.975 277.121 108.625C277.354 108.475 277.563 108.408 277.746 108.425C277.946 108.425 278.104 108.483 278.221 108.6C278.338 108.7 278.413 108.833 278.446 109C278.496 109.15 278.479 109.317 278.396 109.5C278.329 109.683 278.188 109.842 277.971 109.975C277.421 110.375 276.771 110.683 276.021 110.9C275.271 111.117 274.529 111.225 273.796 111.225ZM282.677 111.175C282.343 111.175 282.093 111.083 281.927 110.9C281.76 110.717 281.677 110.458 281.677 110.125V99.7C281.677 99.3667 281.76 99.1167 281.927 98.95C282.093 98.7667 282.335 98.675 282.652 98.675C282.968 98.675 283.21 98.7667 283.377 98.95C283.56 99.1167 283.652 99.3667 283.652 99.7V101.9L283.377 101.55C283.693 100.617 284.202 99.9 284.902 99.4C285.618 98.8833 286.468 98.625 287.452 98.625C288.485 98.625 289.318 98.875 289.952 99.375C290.602 99.8583 291.035 100.617 291.252 101.65H290.877C291.177 100.717 291.71 99.9833 292.477 99.45C293.26 98.9 294.168 98.625 295.202 98.625C296.118 98.625 296.868 98.8 297.452 99.15C298.052 99.5 298.502 100.033 298.802 100.75C299.102 101.45 299.252 102.342 299.252 103.425V110.125C299.252 110.458 299.16 110.717 298.977 110.9C298.81 111.083 298.56 111.175 298.227 111.175C297.91 111.175 297.66 111.083 297.477 110.9C297.31 110.717 297.227 110.458 297.227 110.125V103.525C297.227 102.408 297.035 101.592 296.652 101.075C296.268 100.542 295.618 100.275 294.702 100.275C293.702 100.275 292.91 100.625 292.327 101.325C291.76 102.008 291.477 102.942 291.477 104.125V110.125C291.477 110.458 291.385 110.717 291.202 110.9C291.035 111.083 290.785 111.175 290.452 111.175C290.135 111.175 289.885 111.083 289.702 110.9C289.535 110.717 289.452 110.458 289.452 110.125V103.525C289.452 102.408 289.252 101.592 288.852 101.075C288.468 100.542 287.827 100.275 286.927 100.275C285.927 100.275 285.135 100.625 284.552 101.325C283.985 102.008 283.702 102.942 283.702 104.125V110.125C283.702 110.825 283.36 111.175 282.677 111.175ZM308.513 111.225C307.229 111.225 306.121 110.975 305.188 110.475C304.271 109.958 303.554 109.233 303.038 108.3C302.538 107.367 302.288 106.25 302.288 104.95C302.288 103.683 302.538 102.583 303.038 101.65C303.538 100.7 304.221 99.9583 305.088 99.425C305.971 98.8917 306.988 98.625 308.138 98.625C308.954 98.625 309.688 98.7667 310.338 99.05C310.988 99.3167 311.538 99.7083 311.988 100.225C312.454 100.742 312.804 101.367 313.038 102.1C313.288 102.833 313.413 103.658 313.413 104.575C313.413 104.842 313.338 105.042 313.188 105.175C313.038 105.292 312.821 105.35 312.538 105.35H303.838V104.025H312.063L311.663 104.35C311.663 103.45 311.529 102.692 311.263 102.075C310.996 101.442 310.604 100.958 310.088 100.625C309.588 100.292 308.954 100.125 308.188 100.125C307.338 100.125 306.613 100.325 306.013 100.725C305.429 101.108 304.988 101.65 304.688 102.35C304.388 103.033 304.238 103.833 304.238 104.75V104.9C304.238 106.433 304.604 107.6 305.338 108.4C306.088 109.2 307.146 109.6 308.513 109.6C309.079 109.6 309.638 109.525 310.188 109.375C310.754 109.225 311.304 108.975 311.838 108.625C312.071 108.475 312.279 108.408 312.463 108.425C312.663 108.425 312.821 108.483 312.938 108.6C313.054 108.7 313.129 108.833 313.163 109C313.213 109.15 313.196 109.317 313.113 109.5C313.046 109.683 312.904 109.842 312.688 109.975C312.138 110.375 311.488 110.683 310.738 110.9C309.988 111.117 309.246 111.225 308.513 111.225ZM317.343 111.175C317.01 111.175 316.76 111.083 316.593 110.9C316.427 110.717 316.343 110.458 316.343 110.125V99.7C316.343 99.3667 316.427 99.1167 316.593 98.95C316.76 98.7667 317.002 98.675 317.318 98.675C317.635 98.675 317.877 98.7667 318.043 98.95C318.227 99.1167 318.318 99.3667 318.318 99.7V101.85L318.043 101.55C318.393 100.583 318.96 99.8583 319.743 99.375C320.543 98.875 321.46 98.625 322.493 98.625C323.46 98.625 324.26 98.8 324.893 99.15C325.543 99.5 326.027 100.033 326.343 100.75C326.66 101.45 326.818 102.342 326.818 103.425V110.125C326.818 110.458 326.727 110.717 326.543 110.9C326.377 111.083 326.135 111.175 325.818 111.175C325.485 111.175 325.227 111.083 325.043 110.9C324.877 110.717 324.793 110.458 324.793 110.125V103.55C324.793 102.417 324.568 101.592 324.118 101.075C323.685 100.542 322.985 100.275 322.018 100.275C320.902 100.275 320.01 100.625 319.343 101.325C318.693 102.008 318.368 102.925 318.368 104.075V110.125C318.368 110.825 318.027 111.175 317.343 111.175ZM335.427 111.225C334.477 111.225 333.677 111.058 333.027 110.725C332.394 110.375 331.919 109.875 331.602 109.225C331.286 108.558 331.127 107.75 331.127 106.8V100.425H329.452C329.169 100.425 328.952 100.358 328.802 100.225C328.652 100.075 328.577 99.875 328.577 99.625C328.577 99.375 328.652 99.1833 328.802 99.05C328.952 98.9167 329.169 98.85 329.452 98.85H331.127V95.975C331.127 95.6417 331.219 95.3917 331.402 95.225C331.586 95.0417 331.836 94.95 332.152 94.95C332.469 94.95 332.711 95.0417 332.877 95.225C333.061 95.3917 333.152 95.6417 333.152 95.975V98.85H336.302C336.586 98.85 336.802 98.9167 336.952 99.05C337.102 99.1833 337.177 99.375 337.177 99.625C337.177 99.875 337.102 100.075 336.952 100.225C336.802 100.358 336.586 100.425 336.302 100.425H333.152V106.6C333.152 107.55 333.352 108.275 333.752 108.775C334.152 109.258 334.802 109.5 335.702 109.5C336.019 109.5 336.286 109.467 336.502 109.4C336.736 109.333 336.927 109.3 337.077 109.3C337.227 109.283 337.352 109.333 337.452 109.45C337.552 109.567 337.602 109.767 337.602 110.05C337.602 110.25 337.561 110.433 337.477 110.6C337.411 110.767 337.286 110.883 337.102 110.95C336.902 111.017 336.636 111.075 336.302 111.125C335.986 111.192 335.694 111.225 335.427 111.225Z" fill="white"/>
</svg>
