<svg width="598" height="154" viewBox="0 0 598 154" fill="none" xmlns="http://www.w3.org/2000/svg">
<path d="M128.152 98.512C126.829 98.512 125.784 98.1493 125.016 97.424C124.291 96.656 123.928 95.568 123.928 94.16V57.232C123.928 55.824 124.291 54.7573 125.016 54.032C125.784 53.264 126.872 52.88 128.28 52.88H150.616C151.725 52.88 152.557 53.1573 153.112 53.712C153.667 54.2667 153.944 55.056 153.944 56.08C153.944 57.1467 153.667 57.9787 153.112 58.576C152.557 59.1307 151.725 59.408 150.616 59.408H132.12V72.144H149.272C150.339 72.144 151.149 72.4213 151.704 72.976C152.301 73.5307 152.6 74.32 152.6 75.344C152.6 76.4107 152.301 77.2427 151.704 77.84C151.149 78.3947 150.339 78.672 149.272 78.672H132.12V94.16C132.12 97.0613 130.797 98.512 128.152 98.512ZM164.218 98C162.81 98 161.722 97.6373 160.954 96.912C160.228 96.144 159.866 95.056 159.866 93.648V57.232C159.866 55.824 160.228 54.7573 160.954 54.032C161.722 53.264 162.81 52.88 164.218 52.88H187.066C188.132 52.88 188.943 53.1573 189.498 53.712C190.095 54.2667 190.394 55.056 190.394 56.08C190.394 57.1467 190.095 57.9787 189.498 58.576C188.943 59.1307 188.132 59.408 187.066 59.408H167.738V71.824H185.658C186.767 71.824 187.599 72.1013 188.154 72.656C188.708 73.2107 188.986 74.0213 188.986 75.088C188.986 76.1547 188.708 76.9653 188.154 77.52C187.599 78.0747 186.767 78.352 185.658 78.352H167.738V91.472H187.066C188.132 91.472 188.943 91.7493 189.498 92.304C190.095 92.8587 190.394 93.6693 190.394 94.736C190.394 95.8027 190.095 96.6133 189.498 97.168C188.943 97.7227 188.132 98 187.066 98H164.218ZM202.405 98C200.997 98 199.909 97.6373 199.141 96.912C198.416 96.144 198.053 95.056 198.053 93.648V57.232C198.053 55.824 198.416 54.7573 199.141 54.032C199.909 53.264 200.997 52.88 202.405 52.88H225.253C226.32 52.88 227.13 53.1573 227.685 53.712C228.282 54.2667 228.581 55.056 228.581 56.08C228.581 57.1467 228.282 57.9787 227.685 58.576C227.13 59.1307 226.32 59.408 225.253 59.408H205.925V71.824H223.845C224.954 71.824 225.786 72.1013 226.341 72.656C226.896 73.2107 227.173 74.0213 227.173 75.088C227.173 76.1547 226.896 76.9653 226.341 77.52C225.786 78.0747 224.954 78.352 223.845 78.352H205.925V91.472H225.253C226.32 91.472 227.13 91.7493 227.685 92.304C228.282 92.8587 228.581 93.6693 228.581 94.736C228.581 95.8027 228.282 96.6133 227.685 97.168C227.13 97.7227 226.32 98 225.253 98H202.405ZM240.593 98C239.185 98 238.097 97.6373 237.329 96.912C236.603 96.144 236.241 95.056 236.241 93.648V57.232C236.241 55.824 236.603 54.7573 237.329 54.032C238.097 53.264 239.185 52.88 240.593 52.88H253.009C260.561 52.88 266.385 54.8213 270.481 58.704C274.619 62.5867 276.689 68.1547 276.689 75.408C276.689 79.0347 276.155 82.256 275.089 85.072C274.065 87.8453 272.529 90.192 270.481 92.112C268.475 94.032 266.001 95.504 263.057 96.528C260.155 97.5093 256.806 98 253.009 98H240.593ZM244.433 91.216H252.497C255.142 91.216 257.425 90.896 259.345 90.256C261.307 89.5733 262.929 88.592 264.208 87.312C265.531 85.9893 266.513 84.3467 267.153 82.384C267.793 80.3787 268.113 78.0533 268.113 75.408C268.113 70.1173 266.811 66.1707 264.208 63.568C261.606 60.9653 257.702 59.664 252.497 59.664H244.433V91.216ZM289.151 98C287.828 98 286.804 97.6373 286.079 96.912C285.353 96.144 284.991 95.0987 284.991 93.776V56.848C284.991 55.4827 285.332 54.4587 286.015 53.776C286.74 53.0507 287.764 52.688 289.087 52.688C290.409 52.688 291.412 53.0507 292.095 53.776C292.82 54.4587 293.183 55.4827 293.183 56.848V91.024H311.743C312.895 91.024 313.769 91.3227 314.367 91.92C315.007 92.5173 315.326 93.3707 315.326 94.48C315.326 95.5893 315.007 96.464 314.367 97.104C313.769 97.7013 312.895 98 311.743 98H289.151ZM325.024 98.512C323.701 98.512 322.677 98.1493 321.952 97.424C321.269 96.656 320.928 95.6107 320.928 94.288V56.592C320.928 55.2267 321.269 54.1813 321.952 53.456C322.677 52.7307 323.701 52.368 325.024 52.368C326.347 52.368 327.349 52.7307 328.032 53.456C328.757 54.1813 329.12 55.2267 329.12 56.592V94.288C329.12 95.6107 328.779 96.656 328.096 97.424C327.413 98.1493 326.389 98.512 325.024 98.512ZM342.831 98.512C341.593 98.512 340.633 98.1707 339.951 97.488C339.311 96.8053 338.991 95.824 338.991 94.544V56.464C338.991 55.1413 339.311 54.1387 339.951 53.456C340.633 52.7307 341.508 52.368 342.575 52.368C343.556 52.368 344.281 52.56 344.751 52.944C345.263 53.2853 345.86 53.8827 346.543 54.736L371.055 86.544H369.391V56.272C369.391 55.0347 369.711 54.0747 370.351 53.392C371.033 52.7093 371.993 52.368 373.231 52.368C374.468 52.368 375.407 52.7093 376.047 53.392C376.687 54.0747 377.007 55.0347 377.007 56.272V94.672C377.007 95.8667 376.708 96.8053 376.111 97.488C375.513 98.1707 374.703 98.512 373.679 98.512C372.697 98.512 371.908 98.32 371.311 97.936C370.756 97.552 370.137 96.9333 369.455 96.08L345.007 64.272H346.607V94.544C346.607 95.824 346.287 96.8053 345.647 97.488C345.007 98.1707 344.068 98.512 342.831 98.512ZM390.962 98.512C389.639 98.512 388.615 98.1493 387.89 97.424C387.207 96.656 386.866 95.6107 386.866 94.288V56.528C386.866 55.1627 387.207 54.1387 387.89 53.456C388.615 52.7307 389.639 52.368 390.962 52.368C392.284 52.368 393.287 52.7307 393.97 53.456C394.695 54.1387 395.058 55.1627 395.058 56.528V72.848H395.186L413.554 54.416C414.236 53.7333 414.919 53.2213 415.602 52.88C416.284 52.5387 417.052 52.368 417.906 52.368C419.143 52.368 420.018 52.688 420.53 53.328C421.084 53.968 421.298 54.7147 421.17 55.568C421.084 56.4213 420.679 57.2107 419.954 57.936L401.266 76.432L401.33 72.72L420.85 92.56C421.746 93.4133 422.215 94.3093 422.258 95.248C422.3 96.1867 422.002 96.976 421.362 97.616C420.764 98.2133 419.868 98.512 418.674 98.512C417.65 98.512 416.818 98.2987 416.178 97.872C415.58 97.4453 414.876 96.8267 414.066 96.016L395.186 77.136H395.058V94.288C395.058 95.6107 394.716 96.656 394.034 97.424C393.351 98.1493 392.327 98.512 390.962 98.512Z" fill="#FF8614"/>
<path d="M75.8232 113.35C75.8232 113.35 51.6128 127.576 36.7255 123.256C23.2774 119.353 15.03 117.337 8.99496 104.701C1.35883 88.7133 5.71102 71.6425 13.3191 55.6413C20.2404 41.0843 31.523 27.596 45.1607 19.004C60.0952 9.59511 74.3001 7.39458 90.9743 13.1856C99.9093 16.2887 102.878 19.9512 105.912 28.91C107.587 33.8538 107.297 37.243 105.912 42.2756C103.146 52.3323 86.257 60.3585 86.257 60.3585" stroke="#FF8614" stroke-width="10"/>
<path d="M69.1714 105.982C69.1046 111.374 71.938 119.42 71.938 119.42C71.938 119.42 81.3299 118.409 85.7412 114.379C95.1942 105.744 86.1908 79.2132 86.1908 79.2132C86.1908 79.2132 69.3308 93.1195 69.1714 105.982Z" fill="#2D600A" stroke="#FF8614"/>
<path d="M74.625 114.237C74.625 114.237 80.5353 109.026 82.6134 104.354C84.8345 99.3608 84.7789 90.2592 84.7789 90.2592" stroke="white" stroke-width="0.5"/>
<line y1="-0.25" x2="6.23485" y2="-0.25" transform="matrix(0.293473 0.955967 -0.92943 0.368999 74.9644 106.325)" stroke="white" stroke-width="0.5"/>
<line y1="-0.25" x2="4.63267" y2="-0.25" transform="matrix(0.227544 0.973768 -0.956994 0.290106 79.6111 103.146)" stroke="white" stroke-width="0.5"/>
<line y1="-0.25" x2="2.94754" y2="-0.25" transform="matrix(0.203024 0.979174 -0.965571 0.26014 82.6765 99.4073)" stroke="#242121" stroke-width="0.5"/>
<path d="M81.4531 117.403C81.4531 117.403 86.1548 113.648 87.7787 110.311C89.5144 106.744 89.3761 100.279 89.3761 100.279" stroke="#242121"/>
<line x1="82.1147" y1="111.61" x2="83.6481" y2="115.827" stroke="#242121"/>
<line x1="85.8321" y1="109.346" x2="86.7266" y2="112.54" stroke="#242121"/>
<line x1="88.2639" y1="106.675" x2="88.775" y2="108.72" stroke="#242121"/>
<path d="M81.4531 117.403C81.4531 117.403 86.1548 113.648 87.7787 110.311C89.5144 106.744 89.3761 100.279 89.3761 100.279" stroke="#242121" stroke-width="0.5"/>
<line x1="81.8797" y1="111.695" x2="83.4132" y2="115.912" stroke="#242121" stroke-width="0.5"/>
<line x1="85.5913" y1="109.413" x2="86.4859" y2="112.608" stroke="#242121" stroke-width="0.5"/>
<line x1="88.0213" y1="106.736" x2="88.5325" y2="108.781" stroke="#242121" stroke-width="0.5"/>
<line x1="86.9124" y1="115.679" x2="85.2396" y2="119.842" stroke="#242121" stroke-width="0.5"/>
<line x1="91.1994" y1="116.457" x2="89.7331" y2="119.433" stroke="#242121" stroke-width="0.5"/>
<line x1="94.7953" y1="116.085" x2="93.8112" y2="117.949" stroke="#242121" stroke-width="0.5"/>
<path d="M81.4531 117.403C81.4531 117.403 86.1548 113.648 87.7787 110.311C89.5144 106.744 89.3761 100.279 89.3761 100.279" stroke="#242121"/>
<line x1="82.1147" y1="111.61" x2="83.6481" y2="115.827" stroke="#242121"/>
<line x1="85.8321" y1="109.346" x2="86.7266" y2="112.54" stroke="#242121"/>
<line x1="88.2639" y1="106.675" x2="88.775" y2="108.72" stroke="#242121"/>
<path d="M82.6315 99.9855C78.2835 105.827 73.9376 116.075 73.9376 116.075C73.9376 116.075 81.6022 119.879 88.0366 117.792C101.825 113.319 116.402 79.7058 116.402 79.7058C116.402 79.7058 93.0026 86.0527 82.6315 99.9855Z" fill="#FF8614" stroke="#2D600A"/>
<path d="M82.6633 119.366C82.6633 119.366 90.7783 111.709 94.0001 106.5C97.4438 100.932 105 88.9999 105 88.9999" stroke="white" stroke-width="0.5"/>
<line x1="81.8797" y1="111.695" x2="83.4132" y2="115.912" stroke="#242121" stroke-width="0.5"/>
<line x1="85.5913" y1="109.413" x2="86.4859" y2="112.608" stroke="#242121" stroke-width="0.5"/>
<line x1="88.0213" y1="106.736" x2="88.5325" y2="108.781" stroke="#242121" stroke-width="0.5"/>
<line x1="93.9127" y1="102.009" x2="94.4239" y2="104.053" stroke="white" stroke-width="0.5"/>
<line x1="86.9124" y1="115.679" x2="85.2396" y2="119.842" stroke="#242121" stroke-width="0.5"/>
<line x1="91.5382" y1="115.54" x2="89.9658" y2="118.918" stroke="#242121" stroke-width="0.5"/>
<path d="M72.6785 71.6802L84.4717 53.5973L93.9063 63.9304L72.6785 71.6802Z" fill="#FF8614" stroke="#FF8614" stroke-width="2"/>
<path d="M80.853 108.789C77.0644 112.546 72.4346 120 72.4346 120C72.4346 120 79.2491 124.419 84.6053 124.081C96.083 123.358 109.321 99.5925 109.321 99.5925C109.321 99.5925 89.8899 99.8297 80.853 108.789Z" fill="#2D600A" stroke="#FF8614"/>
<path d="M77.818 118.758C77.818 118.758 84.8454 118.389 89.2995 116.253C94.0603 113.97 100.386 107.508 100.386 107.508" stroke="white" stroke-width="0.5"/>
<line y1="-0.25" x2="6.09259" y2="-0.25" transform="matrix(-0.511187 0.85947 -0.949872 -0.312639 84.1145 113)" stroke="white" stroke-width="0.5"/>
<line x1="89.7575" y1="113.134" x2="87.2108" y2="117.134" stroke="white" stroke-width="0.5"/>
<line x1="97.2429" y1="94.9409" x2="98.3615" y2="99.549" stroke="white" stroke-width="0.5"/>
<line x1="100.244" y1="92.9461" x2="100.805" y2="95.4959" stroke="white" stroke-width="0.5"/>
<line y1="-0.25" x2="2.9046" y2="-0.25" transform="matrix(-0.575964 0.817475 -0.899379 -0.43717 93.6729 112)" stroke="white" stroke-width="0.5"/>
<path d="M72.8751 120C72.7713 119.876 72.5638 119.667 72.3135 119.542C72.1686 119.47 72.1044 119.313 72.0629 119.25C72.0513 119.233 72.0213 119.311 72.0313 119.374C72.1869 119.604 72.3744 119.729 72.4991 119.812C72.5619 119.854 72.6238 119.895 72.6876 119.937" stroke="#2D600A" stroke-linecap="round"/>
<path d="M72.1875 119.875C72.1875 119.854 72.1875 119.834 72.1772 119.792C72.1669 119.751 72.1463 119.689 72.125 119.625" stroke="#2D600A" stroke-linecap="round"/>
</svg>
