<svg width="120" height="126" viewBox="0 0 120 126" fill="none" xmlns="http://www.w3.org/2000/svg">
<path d="M75.8232 108.35C75.8232 108.35 51.6128 122.576 36.7255 118.256C23.2774 114.353 15.03 112.337 8.99496 99.7012C1.35883 83.7133 5.71102 66.6425 13.3191 50.6413C20.2404 36.0843 31.523 22.596 45.1607 14.004C60.0952 4.59511 74.3001 2.39458 90.9743 8.18559C99.9093 11.2887 102.878 14.9512 105.912 23.91C107.587 28.8538 107.297 32.243 105.912 37.2756C103.146 47.3323 86.257 55.3585 86.257 55.3585" stroke="#FF8614" stroke-width="10"/>
<path d="M69.1713 100.982C69.1045 106.374 71.9379 114.42 71.9379 114.42C71.9379 114.42 81.3297 113.409 85.7411 109.379C95.1941 100.744 86.1906 74.2132 86.1906 74.2132C86.1906 74.2132 69.3307 88.1195 69.1713 100.982Z" fill="#2D600A" stroke="#2D600A"/>
<path d="M74.6248 109.237C74.6248 109.237 80.5352 104.026 82.6133 99.3541C84.8344 94.3608 84.7788 85.2591 84.7788 85.2591" stroke="white" stroke-width="0.5"/>
<line y1="-0.25" x2="6.23485" y2="-0.25" transform="matrix(0.293473 0.955967 -0.92943 0.368999 74.9642 101.325)" stroke="white" stroke-width="0.5"/>
<line y1="-0.25" x2="4.63267" y2="-0.25" transform="matrix(0.227544 0.973768 -0.956994 0.290106 79.6108 98.1465)" stroke="white" stroke-width="0.5"/>
<line y1="-0.25" x2="2.94754" y2="-0.25" transform="matrix(0.203024 0.979174 -0.965571 0.26014 82.6765 94.4074)" stroke="#242121" stroke-width="0.5"/>
<path d="M81.4532 112.403C81.4532 112.403 86.1549 108.648 87.7788 105.311C89.5145 101.744 89.3762 95.2793 89.3762 95.2793" stroke="#242121"/>
<line x1="82.1147" y1="106.61" x2="83.6481" y2="110.827" stroke="#242121"/>
<line x1="85.8322" y1="104.346" x2="86.7267" y2="107.54" stroke="#242121"/>
<line x1="88.2639" y1="101.675" x2="88.775" y2="103.72" stroke="#242121"/>
<path d="M81.4532 112.403C81.4532 112.403 86.1549 108.648 87.7788 105.311C89.5145 101.744 89.3762 95.2793 89.3762 95.2793" stroke="#242121" stroke-width="0.5"/>
<line x1="81.8797" y1="106.695" x2="83.4132" y2="110.912" stroke="#242121" stroke-width="0.5"/>
<line x1="85.5914" y1="104.413" x2="86.486" y2="107.608" stroke="#242121" stroke-width="0.5"/>
<line x1="88.0213" y1="101.736" x2="88.5325" y2="103.781" stroke="#242121" stroke-width="0.5"/>
<line x1="86.9123" y1="110.679" x2="85.2395" y2="114.842" stroke="#242121" stroke-width="0.5"/>
<line x1="91.1994" y1="111.457" x2="89.7331" y2="114.433" stroke="#242121" stroke-width="0.5"/>
<line x1="94.7954" y1="111.085" x2="93.8113" y2="112.949" stroke="#242121" stroke-width="0.5"/>
<path d="M81.4532 112.403C81.4532 112.403 86.1549 108.648 87.7788 105.311C89.5145 101.744 89.3762 95.2793 89.3762 95.2793" stroke="#242121"/>
<line x1="82.1147" y1="106.61" x2="83.6481" y2="110.827" stroke="#242121"/>
<line x1="85.8322" y1="104.346" x2="86.7267" y2="107.54" stroke="#242121"/>
<line x1="88.2639" y1="101.675" x2="88.775" y2="103.72" stroke="#242121"/>
<path d="M82.6315 94.9855C78.2835 100.827 73.9376 111.075 73.9376 111.075C73.9376 111.075 81.6022 114.879 88.0366 112.792C101.825 108.319 116.402 74.7058 116.402 74.7058C116.402 74.7058 93.0026 81.0528 82.6315 94.9855Z" fill="#FF8614" stroke="#2D600A"/>
<path d="M82.6632 114.366C82.6632 114.366 90.7782 106.709 94 101.5C97.4437 95.9316 105 83.9999 105 83.9999" stroke="white" stroke-width="0.5"/>
<line x1="81.8797" y1="106.695" x2="83.4132" y2="110.912" stroke="#242121" stroke-width="0.5"/>
<line x1="85.5914" y1="104.413" x2="86.486" y2="107.608" stroke="#242121" stroke-width="0.5"/>
<line x1="88.0213" y1="101.736" x2="88.5325" y2="103.781" stroke="#242121" stroke-width="0.5"/>
<line x1="93.9128" y1="97.0086" x2="94.424" y2="99.0532" stroke="white" stroke-width="0.5"/>
<line x1="86.9123" y1="110.679" x2="85.2395" y2="114.842" stroke="#242121" stroke-width="0.5"/>
<line x1="91.5383" y1="110.54" x2="89.9659" y2="113.918" stroke="#242121" stroke-width="0.5"/>
<path d="M72.6783 66.6802L84.4716 48.5973L93.9061 58.9304L72.6783 66.6802Z" fill="#FF8614" stroke="#FF8614" stroke-width="2"/>
<path d="M80.853 103.789C77.0644 107.546 72.4346 115 72.4346 115C72.4346 115 79.2491 119.419 84.6053 119.081C96.083 118.358 109.321 94.5925 109.321 94.5925C109.321 94.5925 89.8899 94.8297 80.853 103.789Z" fill="#2D600A" stroke="#2D600A"/>
<path d="M77.8179 113.758C77.8179 113.758 84.8453 113.389 89.2994 111.253C94.0602 108.97 100.386 102.508 100.386 102.508" stroke="white" stroke-width="0.5"/>
<line y1="-0.25" x2="6.09259" y2="-0.25" transform="matrix(-0.511187 0.85947 -0.949872 -0.312639 84.1145 108)" stroke="white" stroke-width="0.5"/>
<line x1="89.7576" y1="108.134" x2="87.2109" y2="112.134" stroke="white" stroke-width="0.5"/>
<line x1="97.2429" y1="89.9409" x2="98.3615" y2="94.549" stroke="white" stroke-width="0.5"/>
<line x1="100.244" y1="87.9461" x2="100.805" y2="90.4959" stroke="white" stroke-width="0.5"/>
<line y1="-0.25" x2="2.9046" y2="-0.25" transform="matrix(-0.575964 0.817475 -0.899379 -0.43717 93.673 107)" stroke="white" stroke-width="0.5"/>
<path d="M72.8751 115C72.7713 114.876 72.5638 114.667 72.3135 114.542C72.1686 114.47 72.1044 114.313 72.0629 114.25C72.0513 114.233 72.0213 114.311 72.0313 114.374C72.1869 114.604 72.3744 114.729 72.4991 114.812C72.5619 114.854 72.6238 114.895 72.6876 114.937" stroke="#2D600A" stroke-linecap="round"/>
<path d="M72.1875 114.875C72.1875 114.854 72.1875 114.834 72.1772 114.792C72.1669 114.751 72.1463 114.689 72.125 114.625" stroke="#2D600A" stroke-linecap="round"/>
</svg>
